<?xml version="1.0" standalone="no"?>
<!DOCTYPE svg PUBLIC "-//W3C//DTD SVG 20010904//EN"
 "http://www.w3.org/TR/2001/REC-SVG-20010904/DTD/svg10.dtd">
<svg version="1.0" xmlns="http://www.w3.org/2000/svg"
 width="1024.000000pt" height="1024.000000pt" viewBox="0 0 1024.000000 1024.000000"
 preserveAspectRatio="xMidYMid meet">

<g transform="translate(0.000000,1024.000000) scale(0.100000,-0.100000)"
fill="#000000" stroke="none">
<path d="M4860 10059 c-82 -12 -131 -17 -278 -28 -73 -5 -139 -14 -145 -19 -7
-6 -52 -13 -102 -17 -49 -4 -112 -16 -138 -26 -26 -11 -70 -19 -98 -19 -27 0
-66 -7 -86 -15 -20 -8 -61 -18 -92 -21 -31 -4 -61 -10 -67 -15 -5 -5 -37 -15
-70 -23 -73 -17 -139 -40 -225 -77 -36 -16 -71 -29 -77 -29 -7 0 -29 -9 -49
-20 -21 -11 -46 -20 -56 -20 -10 0 -30 -9 -44 -20 -14 -11 -35 -20 -47 -20
-12 0 -30 -6 -41 -14 -11 -7 -31 -17 -45 -20 -14 -4 -43 -16 -65 -26 -22 -10
-71 -33 -110 -50 -38 -18 -77 -35 -85 -39 -8 -4 -24 -12 -35 -18 -11 -6 -51
-25 -89 -44 -107 -52 -178 -91 -221 -121 -22 -16 -45 -28 -51 -28 -6 0 -19 -9
-29 -20 -10 -11 -27 -22 -39 -26 -17 -5 -75 -46 -132 -93 -5 -4 -21 -14 -34
-21 -30 -16 -224 -163 -228 -172 -2 -5 -8 -8 -14 -8 -26 0 -241 -196 -517
-470 -80 -80 -154 -157 -164 -170 -9 -14 -48 -62 -85 -107 -37 -45 -87 -109
-112 -143 -25 -34 -53 -69 -62 -78 -10 -9 -18 -22 -18 -28 0 -6 -7 -17 -16
-24 -20 -18 -192 -281 -227 -350 -16 -30 -44 -82 -63 -115 -33 -60 -215 -423
-240 -480 -7 -16 -22 -51 -33 -77 -12 -26 -21 -54 -21 -63 0 -9 -5 -26 -12
-38 -22 -39 -110 -295 -143 -412 -55 -199 -103 -454 -110 -581 -4 -60 -11
-118 -16 -129 -12 -29 -30 -257 -36 -490 -5 -189 6 -451 28 -620 5 -38 15
-124 23 -190 9 -65 20 -140 26 -165 5 -25 21 -94 35 -155 207 -905 636 -1699
1275 -2359 658 -679 1478 -1145 2405 -1367 143 -34 291 -61 460 -84 61 -8 151
-20 200 -27 125 -18 838 -18 955 0 47 7 132 19 190 27 360 50 764 153 1090
280 642 250 1170 596 1671 1095 263 261 397 424 645 785 269 391 522 961 651
1465 71 277 103 443 135 700 16 123 16 938 1 1070 -24 199 -43 334 -52 364 -5
17 -12 49 -16 71 -11 75 -73 332 -95 395 -4 14 -20 66 -35 115 -44 147 -106
314 -157 425 -12 25 -36 79 -55 120 -55 121 -111 227 -219 420 -30 52 -183
285 -228 346 -17 23 -38 52 -46 64 -97 143 -373 452 -442 496 -28 18 -54 25
-88 26 -47 0 -50 2 -60 33 -8 24 -26 43 -61 64 -27 17 -49 35 -49 39 0 32
-136 42 -213 16 -44 -15 -49 -15 -70 0 -123 89 -234 156 -259 156 -13 0 -25
-18 -90 -140 -20 -36 -61 -112 -93 -170 -79 -143 -103 -189 -165 -305 -79
-150 -118 -204 -170 -231 -84 -45 -137 -32 -340 83 -37 21 -154 84 -280 150
-106 57 -208 112 -255 138 -22 12 -94 51 -160 85 -127 66 -175 103 -200 156
-22 46 -19 117 6 167 19 36 111 201 139 247 5 8 20 36 34 61 13 25 51 93 84
150 32 57 73 129 89 159 41 76 74 133 83 145 4 6 25 42 45 80 21 39 55 99 76
134 22 34 39 66 39 70 0 6 -90 37 -215 74 -27 8 -84 18 -125 22 -41 4 -86 12
-100 20 -14 7 -50 16 -80 20 -30 4 -60 11 -67 17 -6 5 -56 13 -110 19 -54 5
-112 14 -129 19 -40 13 -190 29 -314 34 -52 2 -135 8 -185 14 -105 12 -415 13
-495 1z m-247 -474 c53 -22 84 -66 92 -128 9 -72 1 -305 -11 -316 -5 -5 -63
-14 -129 -20 -562 -53 -1210 -290 -1695 -620 -142 -96 -309 -219 -340 -251 -3
-3 -41 -36 -85 -75 -129 -112 -199 -182 -334 -330 -109 -120 -161 -183 -269
-325 -188 -248 -418 -675 -471 -875 -14 -52 -15 -50 12 -67 56 -37 63 -34 88
39 33 100 134 318 207 448 110 194 322 495 448 635 435 485 906 826 1449 1050
142 59 401 144 530 174 61 15 126 31 145 36 67 18 342 51 398 48 l57 -3 0
-172 c0 -158 -2 -174 -21 -199 -34 -47 -66 -63 -149 -78 -195 -35 -248 -47
-376 -80 -271 -71 -560 -192 -802 -335 -43 -25 -86 -50 -96 -56 -30 -17 -224
-158 -276 -200 -124 -99 -179 -149 -315 -285 -208 -208 -331 -361 -474 -593
-160 -260 -307 -607 -377 -887 -6 -25 -20 -81 -31 -125 -33 -134 -65 -331 -82
-515 -22 -217 -27 -240 -71 -279 -45 -39 -68 -42 -260 -39 l-160 3 3 185 c2
102 7 221 12 265 13 114 47 330 63 395 12 54 13 55 53 60 53 8 109 43 145 93
25 34 29 49 29 101 l-1 61 -19 -25 c-11 -14 -28 -35 -37 -47 -18 -23 -80 -53
-108 -53 -13 0 -14 11 -9 64 l7 64 -33 7 c-39 9 -51 -3 -71 -71 -7 -24 -19
-44 -26 -44 -21 0 -87 87 -104 137 l-17 48 -11 -28 c-18 -45 -14 -133 8 -176
11 -20 38 -54 60 -74 23 -20 41 -42 41 -48 0 -6 -9 -49 -20 -97 -10 -48 -26
-132 -35 -187 -18 -113 -55 -493 -55 -571 0 -65 3 -64 -200 -64 -179 0 -203 8
-241 82 -21 40 -21 52 -16 208 11 314 72 670 168 975 42 135 80 247 110 322
17 43 40 101 51 128 10 28 61 136 112 240 208 423 465 786 811 1144 313 323
634 576 1005 791 121 70 321 173 362 186 12 3 57 23 102 43 72 33 118 53 194
82 226 88 615 188 846 219 44 6 82 12 84 15 11 11 102 4 135 -10z m547 -97
c85 -40 216 -105 475 -235 77 -39 171 -85 209 -104 108 -52 114 -94 19 -135
-32 -14 -80 -36 -108 -49 -27 -12 -78 -35 -111 -49 -34 -14 -95 -41 -135 -59
-120 -56 -147 -67 -156 -67 -4 -1 -26 -9 -48 -20 -22 -11 -44 -19 -48 -20 -4
0 -43 -16 -85 -36 -53 -25 -97 -38 -139 -42 -56 -4 -67 -2 -103 22 -77 51 -80
64 -80 409 0 332 1 335 59 391 32 31 87 46 136 38 17 -3 68 -23 115 -44z
m3136 -896 c5 -4 18 -18 27 -32 16 -22 17 -58 17 -347 -1 -178 1 -327 4 -332
11 -16 45 -19 65 -4 20 14 21 23 21 267 l0 253 26 27 c47 46 108 24 122 -44 4
-19 5 -224 2 -455 l-5 -420 -27 -56 c-54 -114 -174 -201 -302 -220 -71 -10
-121 -4 -194 22 -128 46 -168 93 -300 354 -44 88 -96 189 -116 224 -20 34 -39
80 -42 100 -5 33 -2 41 26 64 41 35 97 37 137 3 15 -13 50 -62 76 -110 27 -47
54 -86 61 -86 34 0 36 22 36 321 0 164 3 305 6 314 4 8 19 22 34 30 33 17 84
4 100 -25 6 -11 10 -125 10 -270 0 -154 4 -259 10 -271 13 -23 62 -26 84 -3
14 13 16 58 16 340 0 311 1 325 20 344 20 20 65 26 86 12z m-3378 -352 c86
-45 102 -100 102 -355 0 -222 -8 -266 -58 -318 -43 -46 -52 -49 -247 -82 -243
-41 -514 -127 -675 -214 -19 -11 -62 -33 -94 -51 -140 -75 -345 -228 -477
-356 -265 -256 -419 -484 -554 -819 -67 -166 -129 -428 -156 -654 -13 -103
-36 -152 -91 -188 l-42 -28 -246 0 -247 0 -36 28 c-57 43 -77 95 -77 199 0 48
5 118 10 155 31 206 41 264 54 318 8 33 22 89 31 125 8 36 19 72 24 80 5 9 12
31 16 50 9 41 84 237 127 330 153 335 338 604 598 874 494 512 1127 832 1830
926 87 11 163 4 208 -20z m627 20 c50 -6 106 -15 125 -20 19 -5 76 -19 125
-31 393 -92 788 -281 1145 -546 119 -88 177 -149 186 -198 13 -72 -6 -104
-149 -244 -185 -181 -264 -241 -319 -241 -36 0 -114 41 -233 122 -261 177
-539 297 -840 363 -60 13 -135 27 -165 31 -101 12 -174 61 -202 133 -5 14 -10
132 -10 261 0 265 4 288 66 335 59 45 116 52 271 35z m3285 -1220 c172 -33
317 -168 377 -353 60 -184 -11 -401 -174 -529 -32 -25 -76 -54 -98 -65 -49
-25 -155 -53 -201 -53 -48 0 -162 38 -173 58 -8 15 -13 14 -54 -6 -132 -66
-307 25 -307 160 0 39 -3 45 -35 62 -106 58 -96 207 20 270 31 18 41 31 51 67
46 171 133 283 272 350 97 47 209 60 322 39z m-4829 -400 c18 -10 19 -24 19
-250 l0 -240 -35 0 -35 0 0 244 c0 237 1 248 28 255 2 1 12 -4 23 -9z m2349
-362 c30 -201 14 -431 -41 -586 -70 -196 -224 -370 -414 -466 -75 -38 -185
-79 -193 -72 -8 8 152 315 258 496 37 63 71 125 74 136 10 33 -9 69 -42 83
-53 22 -84 -8 -164 -159 -83 -156 -170 -314 -220 -399 -28 -47 -77 -141 -111
-210 l-60 -126 -15 50 c-36 127 -43 177 -44 300 -2 136 10 221 43 319 76 224
325 474 610 612 80 39 268 111 295 113 5 1 16 -41 24 -91z m1596 -9 c21 -13
45 -45 72 -97 23 -43 50 -86 62 -97 11 -10 30 -34 41 -52 18 -28 19 -38 9 -68
-6 -19 -26 -46 -43 -61 -49 -40 -229 -206 -358 -330 -104 -100 -120 -112 -170
-124 -29 -7 -61 -17 -69 -21 -8 -5 -68 -31 -132 -58 -64 -28 -125 -55 -135
-60 -10 -5 -54 -27 -98 -48 -177 -87 -374 -204 -500 -298 -30 -22 -89 -65
-132 -95 -224 -158 -583 -504 -871 -841 -88 -103 -138 -137 -213 -146 -87 -10
-101 1 -539 435 -262 260 -408 398 -417 394 -11 -7 -297 -271 -408 -377 -23
-22 -71 -67 -106 -99 -35 -33 -122 -116 -194 -184 -158 -152 -187 -172 -256
-179 -75 -7 -128 10 -184 59 -88 77 -120 201 -75 288 23 46 62 86 210 220 57
52 184 169 280 260 97 91 232 217 300 281 351 325 335 314 440 314 53 0 74 -5
110 -27 25 -15 220 -200 435 -411 l390 -385 35 31 c33 28 199 184 420 392 52
50 149 140 215 201 424 393 426 394 520 394 62 0 123 -27 170 -75 l35 -37 83
73 c45 41 183 171 307 289 124 118 259 247 300 286 150 143 293 264 319 270
14 3 31 7 36 9 21 6 82 -9 111 -26z m-3938 -399 c33 -100 86 -154 182 -185 90
-29 87 -28 65 -32 -125 -25 -212 -105 -251 -229 -9 -30 -20 -54 -25 -54 -5 0
-13 19 -19 43 -24 98 -107 201 -172 214 -16 3 -31 10 -34 14 -3 5 -20 9 -37
10 l-32 1 41 13 c135 43 210 114 229 218 10 51 34 45 53 -13z m5228 19 c24
-15 37 -32 45 -62 17 -64 7 -71 -96 -75 -111 -4 -140 11 -132 66 4 19 19 48
33 64 35 35 99 39 150 7z m194 -241 c0 -6 14 -40 31 -76 16 -35 28 -71 25 -78
-4 -11 -59 -14 -300 -14 -162 0 -301 3 -310 6 -23 9 -20 30 14 89 16 28 27 55
24 58 -3 3 -3 10 1 16 9 16 515 15 515 -1z m-1256 -285 c4 -21 9 -103 12 -183
7 -155 -19 -442 -52 -585 -31 -135 -67 -280 -74 -300 -5 -11 -18 -51 -30 -90
-12 -38 -28 -83 -35 -100 -8 -16 -26 -59 -40 -95 -90 -218 -275 -524 -451
-744 -98 -122 -306 -336 -431 -445 -247 -212 -539 -383 -853 -498 -52 -19
-104 -38 -115 -43 -11 -5 -40 -14 -65 -20 -25 -6 -54 -14 -65 -19 -69 -28
-349 -82 -440 -86 -48 -1 -63 2 -73 17 -12 16 -9 25 18 71 69 113 176 223 280
289 36 22 76 48 90 58 14 9 104 48 200 87 186 76 433 194 446 214 5 9 -1 10
-24 6 -17 -3 -108 -9 -204 -12 -95 -3 -185 -8 -200 -10 -19 -3 -28 0 -28 9 0
8 60 72 133 143 72 71 182 181 242 245 120 125 256 238 380 315 80 50 228 124
275 138 14 4 30 11 35 15 6 4 35 13 65 20 86 20 120 38 120 60 0 11 9 28 20
37 42 36 26 46 -93 58 -37 4 -70 12 -73 17 -5 7 49 73 149 183 98 107 377 453
387 480 28 75 -55 142 -127 102 -20 -11 -64 -51 -473 -422 -324 -295 -505
-464 -533 -500 -15 -19 -32 -35 -37 -35 -6 0 -10 24 -10 54 0 73 -19 205 -33
231 -10 17 -13 11 -22 -45 -16 -93 -58 -207 -128 -350 l-62 -125 -192 -195
-192 -195 -1 113 c0 68 -4 112 -10 112 -5 0 -10 -5 -10 -10 0 -6 -11 -28 -25
-50 -13 -21 -68 -123 -120 -227 -53 -103 -112 -208 -131 -233 -61 -78 -327
-351 -333 -341 -9 14 5 262 18 317 6 27 17 78 25 114 20 88 36 151 46 175 5
11 21 54 36 95 112 309 313 602 657 956 385 398 779 694 1222 919 195 99 531
245 564 245 6 0 19 4 29 10 17 9 210 74 247 83 11 3 34 5 51 6 29 1 32 -2 38
-36z m1239 11 l37 -7 0 -242 0 -243 -22 -3 c-13 -2 -143 -3 -290 -1 l-268 3 0
244 0 245 198 3 c108 1 222 3 252 5 30 1 72 -1 93 -4z m-6782 -374 c86 -25
117 -74 149 -240 12 -63 29 -137 37 -165 44 -155 58 -198 91 -280 72 -185 180
-379 296 -535 39 -52 138 -163 221 -246 136 -137 199 -191 350 -296 51 -35
222 -138 230 -138 2 0 39 -17 82 -38 142 -68 330 -134 461 -161 92 -19 153
-66 172 -132 13 -43 13 -430 0 -483 -26 -114 -123 -160 -287 -136 -106 15
-367 91 -488 142 -221 93 -501 251 -646 364 -20 16 -47 36 -60 44 -98 65 -350
303 -480 455 -226 265 -390 528 -503 805 -15 36 -31 74 -36 85 -67 148 -147
421 -177 605 -28 172 -28 209 -1 259 50 95 110 112 368 106 102 -2 201 -9 221
-15z m-1531 -14 c0 -38 31 -383 35 -395 3 -7 12 -61 20 -120 20 -143 74 -366
95 -396 4 -5 10 -23 14 -40 4 -16 9 -37 12 -46 3 -10 -12 -36 -36 -64 -25 -28
-40 -56 -40 -72 0 -26 25 -63 41 -63 5 0 34 22 64 50 63 57 92 67 145 51 55
-16 78 -14 85 9 12 37 -20 68 -86 87 -56 16 -63 20 -79 58 -57 133 -137 568
-155 848 l-7 108 202 -3 202 -3 33 -37 c40 -43 51 -81 65 -214 46 -460 250
-1035 514 -1449 58 -91 186 -267 270 -370 141 -174 443 -454 624 -579 28 -20
73 -51 100 -69 110 -78 312 -186 532 -285 53 -23 319 -114 405 -137 290 -79
513 -105 905 -106 379 0 585 25 933 117 l107 28 45 -22 c50 -24 63 -44 110
-177 18 -49 43 -116 55 -148 22 -56 23 -58 4 -71 -51 -37 -436 -134 -699 -175
-39 -6 -40 -7 -42 -51 -1 -25 0 -50 2 -56 8 -27 414 51 628 120 60 20 123 38
141 42 32 5 34 3 53 -38 83 -179 107 -250 108 -312 0 -54 -2 -60 -33 -86 -38
-32 -74 -43 -362 -118 -230 -60 -464 -96 -761 -117 -219 -16 -252 -16 -465 -1
-460 32 -736 85 -1158 223 -239 77 -572 224 -771 338 -33 19 -73 42 -90 51
-99 55 -369 236 -480 321 -16 13 -34 27 -40 31 -126 95 -248 204 -425 382
-367 369 -637 750 -874 1232 -72 146 -92 194 -158 373 -78 212 -154 488 -202
735 -25 125 -58 431 -54 486 5 57 42 118 82 134 11 5 103 9 204 9 152 1 182
-1 182 -13z m8338 -198 c21 -21 14 -73 -14 -102 l-27 -26 -242 0 -243 0 -26
31 c-28 32 -34 77 -14 97 17 17 549 17 566 0z m-358 -488 c147 -65 233 -162
279 -318 27 -88 27 -176 0 -265 -22 -75 -31 -92 -93 -175 -38 -52 -158 -142
-189 -142 -13 0 -44 36 -78 90 -61 97 -81 304 -36 371 44 66 130 46 157 -38
15 -45 4 -89 -36 -141 -35 -46 -35 -62 0 -91 29 -24 81 27 128 125 19 40 23
65 23 139 -1 83 -3 95 -35 153 -33 62 -94 126 -141 149 -39 19 -126 43 -154
43 -64 0 -175 -45 -233 -96 -63 -54 -102 -130 -109 -213 -3 -39 -2 -71 2 -71
5 0 28 12 52 26 77 45 187 49 217 9 6 -9 13 -59 14 -113 5 -133 15 -178 61
-274 l40 -83 -36 -8 c-52 -11 -160 7 -225 36 -30 14 -84 52 -118 84 -50 46
-72 76 -104 143 -37 79 -40 93 -44 188 -4 88 -1 113 18 170 55 162 182 284
335 321 22 6 87 9 145 7 85 -2 115 -7 160 -26z m-271 -1104 c110 -112 114 -89
-37 -238 l-131 -130 14 -29 c22 -42 45 -147 45 -208 0 -200 -147 -390 -346
-446 -67 -18 -186 -17 -264 4 -105 28 -214 118 -269 221 -17 32 -38 93 -46
136 -29 150 20 300 135 415 104 104 215 146 363 136 60 -4 94 -12 138 -34 l58
-29 133 133 c73 73 136 133 139 133 4 0 34 -29 68 -64z m-1054 -1173 c-48 -86
-210 -320 -292 -422 -1 -2 -14 1 -27 7 -20 9 -35 4 -102 -35 -44 -24 -110 -62
-149 -82 -38 -21 -97 -53 -130 -71 -265 -145 -286 -151 -329 -99 -14 17 -26
35 -26 41 0 5 -6 24 -14 41 -66 146 -74 178 -52 211 8 13 54 44 103 68 48 25
147 76 218 113 72 38 162 84 200 102 105 51 100 47 97 85 l-3 35 108 8 c211
15 319 22 366 23 l48 2 -16 -27z"/>
<path d="M5215 9264 c-117 -61 -142 -213 -51 -312 33 -38 71 -52 132 -52 78 0
134 33 174 103 35 61 37 98 10 158 -26 57 -38 72 -80 98 -43 26 -140 29 -185
5z"/>
<path d="M1684 3686 c-6 -7 -15 -22 -19 -35 -3 -12 -29 -44 -56 -71 l-49 -49
-20 26 c-11 14 -20 30 -20 35 0 4 -11 26 -25 48 -20 32 -31 40 -54 40 -49 0
-55 -49 -16 -131 29 -63 25 -67 -60 -68 -66 -1 -144 28 -212 80 l-56 42 5 -50
c6 -63 53 -134 116 -173 57 -35 172 -55 250 -42 61 10 59 12 127 -113 69 -127
267 -418 389 -570 117 -146 390 -430 510 -530 154 -130 241 -194 385 -289 412
-272 826 -452 1313 -569 227 -55 343 -73 606 -93 l83 -7 -3 59 -3 59 -135 12
c-563 51 -1107 223 -1596 506 -131 75 -224 138 -389 261 -157 117 -231 181
-401 351 -258 257 -434 485 -647 836 -74 122 -89 161 -67 174 6 4 7 12 3 18
-11 17 -5 44 19 85 11 20 22 56 24 81 2 25 6 56 9 69 6 25 5 26 -11 8z"/>
<path d="M5161 1382 c-74 -37 -100 -122 -63 -206 16 -36 30 -50 59 -62 81 -34
192 11 215 88 13 46 -1 119 -30 151 -41 46 -124 59 -181 29z"/>
<path d="M4886 1068 c0 -51 6 -104 11 -118 52 -121 225 -217 372 -208 76 5
177 49 228 98 37 37 83 127 90 179 3 20 -1 56 -9 80 l-15 43 -31 -54 c-84
-149 -256 -217 -417 -163 -48 16 -73 33 -125 86 -77 78 -84 87 -96 123 -7 20
-9 3 -8 -66z"/>
<path d="M8081 2880 c-54 -30 -108 -88 -133 -144 -31 -69 -33 -231 -4 -288 23
-48 85 -110 144 -145 43 -25 56 -27 147 -28 93 0 104 2 155 30 47 26 55 34 55
59 0 44 -24 53 -76 29 -89 -42 -119 -46 -182 -28 -187 54 -240 287 -96 420 21
19 42 35 47 35 19 0 44 39 37 59 -8 27 -47 27 -94 1z"/>
<path d="M7148 1797 c-28 -11 -68 -72 -68 -104 0 -10 14 -35 31 -56 25 -30 37
-37 65 -37 47 0 68 12 93 55 38 65 24 112 -42 140 -41 17 -42 17 -79 2z"/>
<path d="M7066 9817 c-15 -19 -26 -36 -26 -40 0 -3 -31 -60 -70 -127 -38 -67
-70 -133 -70 -146 0 -30 45 -74 74 -74 37 1 55 25 137 186 89 176 92 195 34
220 -47 19 -51 19 -79 -19z"/>
<path d="M7352 9663 c-10 -16 -36 -62 -57 -103 -22 -41 -54 -99 -72 -128 -41
-65 -52 -122 -28 -145 28 -28 64 -32 93 -10 35 26 192 336 185 364 -14 52 -90
66 -121 22z"/>
<path d="M7623 9484 c-11 -16 -47 -80 -81 -142 -45 -82 -62 -123 -62 -151 0
-72 67 -96 113 -41 32 38 157 284 157 309 0 26 -19 39 -67 47 -36 5 -42 3 -60
-22z"/>
<path d="M6610 9281 c0 -6 4 -11 10 -11 5 0 33 -14 62 -31 29 -17 89 -51 133
-74 44 -23 121 -64 170 -90 102 -54 234 -124 315 -168 137 -74 219 -117 224
-117 3 0 3 7 0 15 -4 8 -10 15 -14 15 -4 0 -37 16 -72 36 -68 39 -152 84 -293
159 -49 26 -94 51 -100 55 -5 4 -66 37 -135 73 -69 35 -155 81 -191 100 -80
42 -109 52 -109 38z"/>
<path d="M6526 9121 c9 -9 52 -33 244 -133 162 -85 244 -130 255 -138 24 -19
427 -222 431 -217 8 8 -9 17 -326 184 -41 22 -129 69 -195 105 -321 174 -447
235 -409 199z"/>
<path d="M6436 8961 c10 -11 30 -22 255 -139 85 -44 174 -92 199 -106 168 -93
447 -236 461 -236 20 0 -12 20 -146 90 -66 34 -138 73 -160 85 -67 38 -155 85
-265 142 -58 30 -155 82 -217 114 -103 55 -151 73 -127 50z"/>
<path d="M6360 8808 c0 -8 42 -36 93 -63 50 -27 108 -58 127 -68 19 -11 85
-46 145 -77 167 -87 508 -271 523 -283 15 -12 30 -1 16 12 -5 5 -49 30 -99 56
-49 27 -94 51 -100 56 -5 4 -39 23 -75 41 -36 19 -114 61 -175 93 -60 31 -128
68 -150 80 -22 13 -83 45 -135 73 -52 27 -112 59 -132 72 -29 17 -38 19 -38 8z"/>
</g>
</svg>
